<svg id="_x35_0" enable-background="new 0 0 512 512" height="512" viewBox="0 0 512 512" width="512" xmlns="http://www.w3.org/2000/svg"><g><g><circle cx="256" cy="256" fill="#29a3fb" r="256"/><circle cx="256" cy="256" fill="#4fcae8" r="203.32"/><path d="m28.29 373.08c7.17 13.92 15.58 27.1 25.08 39.38 9.44 12.21 19.95 23.54 31.41 33.85 28.46 25.62 62.7 44.96 100.53 55.8 22.45 6.44 46.17 9.89 70.69 9.89 99.19 0 185.21-56.42 227.71-138.92z" fill="#eea47d"/><g fill="#f5b890"><path d="m131.42 373.08v106.62c6.668 3.708 13.507 7.145 20.48 10.25v-116.87z"/><path d="m311.468 373.08v101.554c0 5.66 4.59 10.25 10.25 10.25 5.65 0 10.24-4.59 10.24-10.25v-101.554z"/><path d="m183.294 373.08v61.027c0 5.66 4.59 10.25 10.25 10.25 5.65 0 10.24-4.59 10.24-10.25v-61.027z"/><path d="m46.905 373.08v19.502c0 5.66 4.59 10.25 10.25 10.25 5.65 0 10.24-4.59 10.24-10.25v-19.502z"/><path d="m206.29 473.18v33.99c6.74 1.33 13.57 2.39 20.49 3.17v-37.16c0-5.65-4.59-10.24-10.24-10.24-5.656.004-10.249 4.576-10.25 10.24z"/><path d="m84.79 401.658v44.652c6.53 5.9 13.37 11.45 20.49 16.63v-61.282c-.528-13.576-19.964-13.572-20.49 0z"/><path d="m263.37 373.08v138.81c6.849-.186 13.674-.653 20.48-1.39v-137.42z"/><path d="m348.32 406.75v88.1c6.98-2.7 13.81-5.7 20.48-8.98v-79.12c-.518-13.58-19.966-13.573-20.48 0z"/><path d="m416.17 373.6v82.11c7.145-5.736 13.984-11.856 20.48-18.32v-63.79c0-.17 0-.35-.01-.52h-20.46c-.01.18-.01.35-.01.52z"/></g></g><g id="Laptop_6_"><g id="Laptop_10_"><g><g><path d="m231.128 217.278v127.771c0 10.485 8.496 18.981 18.973 18.981h204.053c10.485 0 18.981-8.496 18.981-18.981v-127.771c0-1.112-.097-2.207-.292-3.27-1.534-8.927-9.316-15.711-18.689-15.711h-204.053c-10.477 0-18.973 8.496-18.973 18.981z" fill="#3e4e60"/><path d="m322.276 364.03h131.878c10.485 0 18.981-8.496 18.981-18.981v-127.771c0-1.112-.097-2.207-.292-3.27-80.104 6.216-144.075 69.992-150.567 150.022z" fill="#334353"/><path d="m231.128 217.278v97.989c7.661 1.769 15.638 2.71 23.834 2.71 58.079 0 105.163-47.083 105.163-105.163 0-4.926-.341-9.77-.998-14.518h-109.026c-10.477.001-18.973 8.497-18.973 18.982z" fill="#3f5d77"/></g><g><g><path d="m149.815 428.821v12.189c-.008.13-.008.26 0 .381v.033c.17 2.013 2.605 3.287 7.166 3.287h211.413c8.448 0 20.985-4.342 28.005-9.698l64.028-48.869c3.246-2.475 4.739-4.731 4.577-6.443v-12.416h-14.534v9.162h-204.045c-8.448 0-20.985 4.342-28.005 9.697l-57.414 43.813v-1.136z" fill="#334353"/><path d="m354.76 410.578c0 11.921 1.899 23.388 5.421 34.132h8.212c8.448 0 20.985-4.342 28.005-9.698l64.028-48.869c3.246-2.475 4.739-4.731 4.577-6.443v-12.416h-14.534v9.162h-90.288c-3.522 10.745-5.421 22.211-5.421 34.132z" fill="#2e3140"/><path d="m149.815 428.821v12.189c-.008.13-.008.26 0 .381v.033c.17 2.013 2.605 3.287 7.166 3.287h120.232c22.195-16.084 38.116-40.291 43.415-68.264h-74.204c-8.448 0-20.985 4.342-28.005 9.697l-57.414 43.813v-1.136z" fill="#3e4e60"/></g><g><path d="m156.981 432.294h211.413c8.448 0 20.985-4.342 28.005-9.698l64.028-48.869c7.02-5.356 5.859-9.698-2.589-9.698h-211.413c-8.448 0-20.985 4.342-28.005 9.698l-18.097 13.812-45.931 35.057c-7.02 5.356-5.859 9.698 2.589 9.698z" fill="#3f5d77"/><path d="m156.981 432.294h134.58c17.415-17.926 28.76-41.784 30.699-68.264h-75.835c-8.448 0-20.985 4.342-28.005 9.698l-18.097 13.812-45.931 35.057c-7.02 5.355-5.859 9.697 2.589 9.697z" fill="#426c8c"/><path d="m354.76 410.578c0 7.433.738 14.696 2.151 21.716h11.483c8.448 0 20.985-4.342 28.005-9.698l64.028-48.869c7.02-5.356 5.859-9.698-2.589-9.698h-92.731c-6.638 14.13-10.347 29.905-10.347 46.549z" fill="#3e4e60"/><path d="m200.323 387.539c11.247 3.53 25.116 5.599 40.121 5.599 37.589 0 68.069-13.033 68.069-29.109h-62.088c-8.448 0-20.985 4.342-28.005 9.698z" fill="#417fa5"/></g></g><g><path d="m239.243 223.664v106.883c0 9.527 7.726 17.253 17.253 17.253h191.271c9.527 0 17.253-7.726 17.253-17.253v-106.883c0-3.116-.828-6.038-2.28-8.561-2.962-5.194-8.561-8.691-14.972-8.691h-191.273c-9.527 0-17.252 7.725-17.252 17.252z" fill="#5368b7"/></g><path d="m343.522 350.233h17.216c2.563 0 4.641 2.078 4.641 4.641v2.078c0 2.563-2.078 4.641-4.641 4.641h-17.216c-2.563 0-4.641-2.078-4.641-4.641v-2.078c0-2.563 2.078-4.641 4.641-4.641z" fill="#2e3140"/><g><g><g fill="#2e3140"><path d="m376.728 377.493h20.985l.325-.252 5.315-4.058c.933-.706.43-2.191-.738-2.191h-20.977l-.325.252-3.936 3.003h-.008l-1.38 1.055c-.925.706-.422 2.191.739 2.191z"/><path d="m392.422 391.427h20.117l.316-.243c.008 0 .008-.008.016-.008l7.612-5.81c.933-.706.43-2.191-.738-2.191h-20.117l-.325.251-6.24 4.755-1.38 1.055c-.924.714-.421 2.191.739 2.191z"/><path d="m342.783 377.493h20.977l.325-.252 5.315-4.058c.933-.706.43-2.191-.738-2.191h-20.977l-.325.252-3.936 3.003c-.027.023-1.546 1.166-1.501 1.152-.763.739-.26 2.094.86 2.094z"/><path d="m274.876 377.493h20.977l.325-.252 5.323-4.058c.925-.706.422-2.191-.738-2.191h-20.985l-.325.252-3.936 3.003-1.38 1.055c-.933.706-.43 2.191.739 2.191z"/><path d="m308.829 377.493h20.977l.325-.252 5.323-4.058c.906-.677.443-2.195-.747-2.191h-20.977l-.325.252-3.936 3.003-1.38 1.055c-.931.706-.428 2.191.74 2.191z"/><path d="m338.052 407.016h20.977l.292-.227c.019.027 9.798-7.495 9.819-7.49.925-.706.422-2.191-.747-2.191h-20.977l-.325.252-8.399 6.411h-.008c-.028.023-1.535 1.166-1.493 1.152-.762.746-.259 2.093.861 2.093z"/><path d="m236.192 407.016h20.977l.243-.187c.008 0 .008-.008.016-.008.643-.471 9.554-7.301 9.852-7.523.933-.706.43-2.191-.738-2.191h-20.977l-.316.243c-.008 0-.008.008-.016.008l-8.399 6.411-1.38 1.055c-.934.715-.431 2.192.738 2.192z"/><path d="m304.098 407.016h20.977l.292-.227c.019.027 9.798-7.495 9.819-7.49.925-.706.43-2.191-.738-2.191h-20.977l-.316.243c-.008 0-.008.008-.016.008l-8.399 6.411-1.38 1.055c-.933.714-.43 2.191.738 2.191z"/><path d="m270.145 407.016h20.977l.292-.227c.019.027 9.798-7.495 9.819-7.49.925-.706.43-2.191-.738-2.191h-20.977l-.316.243c-.008 0-.008.008-.016.008l-8.399 6.411-1.38 1.055c-.934.714-.431 2.191.738 2.191z"/><path d="m410.681 377.493h19.955c.122-.114.235-.227.341-.341.306-.283.565-.61.828-.925v-.008c3.04-3.86-1.162-5.359-4.666-5.226h-11.548l-.316.243c-.008 0-.008.008-.016.008l-3.936 3.003-1.38 1.055c-.925.706-.43 2.191.738 2.191z"/><path d="m371.997 407.016h7.945c7.737-.267 15.944-3.169 22.284-7.717.933-.706.43-2.191-.739-2.191h-20.117l-.325.252-8.407 6.411-1.38 1.055c-.925.713-.422 2.19.739 2.19z"/><path d="m243.114 377.493h18.786l.316-.243c.008 0 .008-.008.016-.008l5.315-4.058c.925-.706.43-2.191-.738-2.191-2.855.059-9.221-.206-11.953.341-4.229.672-8.364 2.024-12.246 3.83-1.192.552-.811 2.329.504 2.329z"/><path d="m205.963 404.419c.043.637.427 1.18.933 1.542 0 0 .008 0 .008.008 1.388.917 3.136 1.016 4.764 1.047h11.548l.243-.187c.008 0 .008-.008.016-.008.643-.471 9.554-7.301 9.852-7.523.933-.706.43-2.191-.738-2.191h-20.117c-2.35 1.858-6.748 4.635-6.509 7.312z"/><path d="m358.477 391.427h20.977l.325-.252 7.62-5.81c.041-.033.081-.065.114-.097.763-.738.26-2.094-.86-2.094h-20.977l-.325.251-6.232 4.755h-.008c-.028.023-1.535 1.166-1.493 1.152-.764.748-.261 2.095.859 2.095z"/><path d="m256.617 391.427h20.977l.316-.243c.008 0 .008-.008.016-.008l7.612-5.81c.933-.706.43-2.191-.738-2.191h-20.977l-.316.243c-.008 0-.008.008-.016.008l-6.232 4.755-1.38 1.055c-.934.714-.43 2.191.738 2.191z"/><path d="m324.524 391.427h20.977l.325-.252 7.62-5.81c.925-.706.422-2.191-.747-2.191h-20.977l-.325.251-6.232 4.755-1.38 1.055c-.933.715-.43 2.192.739 2.192z"/><path d="m290.57 391.427h20.977l.325-.252 7.62-5.81c.925-.706.43-2.191-.738-2.191h-20.977l-.316.243c-.008 0-.008.008-.016.008l-6.232 4.755-1.38 1.055c-.934.715-.431 2.192.737 2.192z"/><path d="m223.532 391.427h20.109l.316-.243c.008 0 .008-.008.016-.008l7.612-5.81c.933-.706.43-2.191-.738-2.191h-20.117l-.325.251-6.24 4.755-1.38 1.055c-.925.714-.421 2.191.747 2.191z"/></g><g fill="#3e4e60"><path d="m377.377 374.247h16.676c.268 0 .527-.089.738-.252l3.936-3.003h-17.09l-.325.252z"/><path d="m393.063 388.181h15.816c.268 0 .527-.089.747-.251l6.232-4.755h-16.23l-.325.251z"/><path d="m343.424 374.247h16.676c.268 0 .527-.089.738-.252l3.936-3.003h-17.09l-.325.252z"/><path d="m275.517 374.247h16.676c.268 0 .527-.089.738-.252l3.936-3.003h-17.09l-.325.252z"/><path d="m309.47 374.247h16.676c.268 0 .527-.089.738-.252l3.936-3.003h-17.09l-.325.252z"/><path d="m338.693 403.77h16.676c.268 0 .527-.081.738-.243l8.407-6.419h-17.098l-.325.252z"/><path d="m236.833 403.77h16.676c.268 0 .527-.081.747-.243l8.399-6.419h-17.09l-.316.243c-.008 0-.008.008-.016.008z"/><path d="m304.739 403.77h16.676c.268 0 .527-.081.738-.243l8.407-6.419h-17.09l-.316.243c-.008 0-.008.008-.016.008z"/><path d="m270.786 403.77h16.676c.268 0 .527-.081.738-.243l8.407-6.419h-17.09l-.316.243c-.008 0-.008.008-.016.008z"/><path d="m411.322 374.247h15.565c1.322-.113 2.425-2.369 2.621-3.076-1.426-.351-12.224-.113-13.917-.178l-.316.243c-.008 0-.008.008-.016.008z"/><path d="m372.638 403.77h4.057c6.347-.002 15.267-3.021 20.783-6.662h-16.108l-.325.252z"/><path d="m244.688 374.247h13.552c.268 0 .527-.089.747-.252l3.936-3.003c-.863.016-4.349-.034-5.137.032-4.504.263-8.924 1.539-13.098 3.223z"/><path d="m206.036 403.591c1.432.343 11.827.118 13.52.179.268 0 .527-.081.747-.243l8.399-6.419h-16.23c-2.065 1.538-6.184 4.508-6.436 6.483z"/><path d="m359.118 388.181h16.676c.268 0 .527-.089.738-.251l6.24-4.755h-17.098l-.325.251z"/><path d="m257.258 388.181h16.676c.268 0 .527-.089.747-.251l6.232-4.755h-17.09l-.316.243c-.008 0-.008.008-.016.008z"/><path d="m325.165 388.181h16.676c.268 0 .527-.089.738-.251l6.24-4.755h-17.098l-.325.251z"/><path d="m291.212 388.181h16.676c.268 0 .527-.089.738-.251l6.24-4.755h-17.09l-.316.243c-.008 0-.008.008-.016.008z"/><path d="m224.165 388.181h15.816c.268 0 .527-.089.747-.251l6.232-4.755h-16.23l-.325.251z"/></g></g><g><path d="m242.862 425.81h71.145c2.84 0 7.06-1.461 9.422-3.27 2.374-1.794 8.96-6.845 11.402-8.699 2.361-1.802 1.972-3.262-.868-3.262h-71.145c-2.84 0-7.06 1.461-9.422 3.262l-11.41 8.699c-1.904 1.359-2.429 3.271.876 3.27z" fill="#3e4e60"/><path d="m242.862 425.81h71.145c2.84 0 7.06-1.461 9.422-3.27l3.514-2.678c.43-.998-.365-1.672-2.305-1.672h-71.136c-2.848 0-7.068 1.461-9.43 3.262l-3.506 2.678c-.439.998.365 1.68 2.296 1.68z" fill="#2e3140"/></g></g><g fill="#417fa5"><path d="m270.337 206.413h53.866c1.831 0 3.315-1.484 3.315-3.315v-1.485c0-1.831-1.484-3.315-3.315-3.315h-53.866c-1.831 0-3.315 1.484-3.315 3.315v1.485c0 1.83 1.484 3.315 3.315 3.315z"/><path d="m171.961 422.036h53.159c2.314 0 4.191 1.876 4.191 4.191v1.876c0 2.314-1.876 4.191-4.191 4.191h-53.159c-2.314 0-4.191-1.876-4.191-4.191v-1.876c.001-2.315 1.877-4.191 4.191-4.191z"/></g></g></g><g><path d="m435.574 268.602h-166.089c-3.301 0-5.978-2.676-5.978-5.978v-34.53c0-3.301 2.676-5.978 5.978-5.978h166.089c3.301 0 5.978 2.676 5.978 5.978v34.53c0 3.302-2.677 5.978-5.978 5.978z" fill="#cde6f6"/><path d="m435.574 330.407h-71.666c-3.301 0-5.978-2.676-5.978-5.978v-40.379c0-3.301 2.676-5.978 5.978-5.978h71.666c3.301 0 5.978 2.676 5.978 5.978v40.379c0 3.301-2.677 5.978-5.978 5.978z" fill="#cde6f6"/><path d="m348.459 293.527v-9.476c0-3.301-2.676-5.978-5.978-5.978h-72.997c-3.301 0-5.978 2.676-5.978 5.978v9.476c0 3.301 2.676 5.978 5.978 5.978h72.997c3.302-.001 5.978-2.677 5.978-5.978z" fill="#ea7589"/><g fill="#22a8b9"><path d="m263.507 314.953v9.476c0 3.301 2.676 5.978 5.978 5.978h72.997c3.301 0 5.978-2.676 5.978-5.978v-9.476c0-3.301-2.676-5.978-5.978-5.978h-72.997c-3.301 0-5.978 2.676-5.978 5.978z"/><path d="m427.729 230.887h-150.399c-2.335 0-4.227 1.893-4.227 4.227 0 2.335 1.893 4.227 4.227 4.227h150.399c2.335 0 4.227-1.893 4.227-4.227 0-2.334-1.892-4.227-4.227-4.227z"/><path d="m427.729 247.485h-150.399c-2.335 0-4.227 1.893-4.227 4.227 0 2.335 1.893 4.227 4.227 4.227h150.399c2.335 0 4.227-1.893 4.227-4.227 0-2.335-1.892-4.227-4.227-4.227z"/></g></g></g><g><g id="Speech-bubble_3_"><path d="m175.322 260.412c-3.865 0-7.652-1.887-9.926-5.362l-38.217-58.407c-3.583-5.476-2.049-12.82 3.428-16.403 5.475-3.583 12.818-2.048 16.402 3.427l38.217 58.407c3.582 5.476 2.049 12.82-3.428 16.403-2 1.309-4.251 1.935-6.476 1.935z" fill="#ebd9ea"/><path d="m240.08 96.57v74c0 10.44-3.53 20.04-9.47 27.7-8.26 10.64-21.18 17.48-35.7 17.48h-114.44c-14.52 0-27.44-6.84-35.69-17.48-5.95-7.66-9.48-17.26-9.48-27.7v-44.35c5.71-9.7 12.05-18.99 18.95-27.82 13.83-17.68 29.93-33.49 47.87-47h92.79c14.52 0 27.44 6.84 35.7 17.49 5.94 7.64 9.47 17.24 9.47 27.68z" fill="#ebd9ea"/><path d="m240.085 96.573v74.001c0 10.439-3.536 20.04-9.474 27.696-5.947-7.656-9.483-17.257-9.483-27.696v-74.001c0-10.439 3.536-20.04 9.483-27.687 5.938 7.647 9.474 17.248 9.474 27.687z" fill="#fff"/><path d="m54.25 98.4v72.17c0 10.44-3.53 20.04-9.47 27.7-5.95-7.66-9.48-17.26-9.48-27.7v-44.35c5.71-9.7 12.05-18.99 18.95-27.82z" fill="#c1b7d3"/></g><g id="Lightbulb_7_"><g><path d="m175.475 101.359c0 9.899-5.224 17.813-10.055 25.608-.457.741-.952 1.693-1.473 2.809-1.189 2.534-2.489 5.874-3.715 9.241-2.571 7.091-4.785 14.291-4.785 14.291h-35.507s-6.276-20.348-9.972-26.34c-.769-1.235-1.546-2.47-2.306-3.724-4.053-6.633-7.758-13.559-7.758-21.885 0-8.39 2.736-16.148 7.374-22.415 6.871-9.323 17.941-15.37 30.411-15.37 3.367 0 6.624.439 9.725 1.272 6.011 1.592 11.427 4.629 15.864 8.71 7.504 6.907 12.197 16.806 12.197 27.803z" fill="#daab42"/><path d="m114.643 101.359c0 8.152-2.58 15.709-6.981 21.885-4.053-6.633-7.758-13.559-7.758-21.885 0-8.39 2.736-16.148 7.374-22.415 4.63 6.267 7.365 14.025 7.365 22.415z" fill="#c4983d"/><path d="m175.475 101.359c0 9.899-5.224 17.813-10.055 25.608-.457.741-.952 1.693-1.473 2.809-1.189 2.534-2.489 5.874-3.715 9.241-1.016.082-2.049.128-3.083.128-20.869 0-37.786-16.917-37.786-37.786 0-17.502 11.903-32.223 28.051-36.514 6.011 1.592 11.427 4.629 15.864 8.71 7.504 6.908 12.197 16.807 12.197 27.804z" fill="#f9c744"/><path d="m175.475 101.359c0 9.899-5.224 17.813-10.055 25.608-.457.741-.952 1.693-1.473 2.809-6.176-5.425-10.576-12.836-12.187-21.235-.448-2.324-.686-4.73-.686-7.182 0-8.609 2.882-16.551 7.731-22.9 1.345-1.766 2.845-3.403 4.474-4.904 7.503 6.908 12.196 16.807 12.196 27.804z" fill="#f8d07a"/><circle cx="154.012" cy="93.206" fill="#fbd9a3" r="15.504"/><path d="m175.475 101.359c0 9.899-5.224 17.813-10.055 25.608-.457.741-.952 1.693-1.473 2.809-1.189 2.534-2.489 5.874-3.715 9.241-2.571 7.091-4.785 14.291-4.785 14.291h-35.507s-6.276-20.348-9.972-26.34c-.769-1.235-1.546-2.47-2.306-3.724-4.053-6.633-7.758-13.559-7.758-21.885 0-8.39 2.736-16.148 7.374-22.415 6.871-9.323 17.941-15.37 30.411-15.37 3.367 0 6.624.439 9.725 1.272 6.011 1.592 11.427 4.629 15.864 8.71 7.504 6.907 12.197 16.806 12.197 27.803z" fill="none"/></g><g><path d="m151.075 184.826v5.37c0 5.572-3.413 10.357-8.252 12.37-1.583.65-3.312 1.016-5.133 1.016-7.383 0-13.376-5.993-13.376-13.385v-5.37h26.761z" fill="#2e3140"/><path d="m151.075 184.826v5.37c0 5.572-3.413 10.357-8.252 12.37-4.849-2.013-8.262-6.789-8.262-12.37v-5.37z" fill="#3e4e60"/><path d="m151.075 184.826v5.37c0 5.572-3.413 10.357-8.252 12.37-1.583.65-3.312 1.016-5.133 1.016-7.383 0-13.376-5.993-13.376-13.385v-5.37h26.761z" fill="none"/></g><g><path d="m131.763 127.128h11.861v26.18h-11.861z" fill="#bf5e39"/><path d="m137.694 127.128h5.931v26.18h-5.931z" fill="#dd5e26"/></g><g><path d="m155.219 119.74c0 .732-.101 1.436-.302 2.095-.906 3.065-3.742 5.297-7.091 5.297h-20.265c-2.04 0-3.888-.833-5.224-2.168-1.336-1.336-2.168-3.184-2.168-5.224 0-4.08 3.312-7.392 7.392-7.392h20.265c2.04 0 3.888.833 5.224 2.168 1.346 1.335 2.169 3.183 2.169 5.224z" fill="#bf5e39"/><path d="m155.219 119.74c0 .732-.101 1.436-.302 2.095h-19.195c-2.04 0-3.888-.823-5.224-2.168-1.336-1.336-2.168-3.184-2.168-5.224 0-.732.11-1.436.302-2.095h19.195c2.04 0 3.888.833 5.224 2.168 1.345 1.335 2.168 3.183 2.168 5.224z" fill="#dd5e26"/><path d="m153.051 114.515c1.345 1.336 2.168 3.184 2.168 5.224 0 .732-.101 1.436-.302 2.095h-6.871c-2.04 0-3.888-.823-5.224-2.168-1.336-1.336-2.159-3.184-2.159-5.224 0-.732.101-1.436.302-2.095h6.862c2.04 0 3.888.833 5.224 2.168z" fill="#ea792e"/><path d="m155.219 119.74c0 .732-.101 1.436-.302 2.095-.906 3.065-3.742 5.297-7.091 5.297h-20.265c-2.04 0-3.888-.833-5.224-2.168-1.336-1.336-2.168-3.184-2.168-5.224 0-4.08 3.312-7.392 7.392-7.392h20.265c2.04 0 3.888.833 5.224 2.168 1.346 1.335 2.169 3.183 2.169 5.224z" fill="none"/></g><g><path d="m165.805 163.198c0 .174-.009.339-.018.494-.339 5.014-5.828 5.965-9.863 9.387-.823.704-.704 4.254-.704 4.254 0 9.68-7.85 17.53-17.53 17.53-5.828 0-10.988-2.845-14.172-7.228-.64-.878-1.199-1.821-1.674-2.818-.659-1.391-1.134-2.891-1.409-4.456-.174-.979-.265-1.994-.265-3.028 0 0 .119-3.55-.704-4.254-4.163-3.532-9.881-4.428-9.881-9.881 0-5.462 4.419-9.89 9.881-9.89h36.459c5.461-.001 9.88 4.428 9.88 9.89z" fill="#c1b7d3"/><path d="m165.787 163.198v.494c-.339 5.014-5.828 5.965-9.863 9.387-.823.704-.704 4.254-.704 4.254 0 9.68-7.85 17.53-17.53 17.53-5.828 0-10.988-2.845-14.172-7.228-.64-.878-1.199-1.821-1.674-2.818-.659-1.391-1.134-2.891-1.409-4.456-.174-.979-.265-1.994-.265-3.028 0 0 .119-3.55-.704-4.254-4.163-3.532-9.881-4.428-9.881-9.881z" fill="#aea7b9"/><path d="m143.628 163.198s-2.937 21.134-21.784 21.619c-1.07-2.269-1.674-4.803-1.674-7.484 0 0 .119-3.55-.704-4.254-4.163-3.532-9.881-4.428-9.881-9.881z" fill="#9f90ae"/><path d="m135.091 158.248c0 2.736-2.214 4.95-4.94 4.95h-20.567c0-5.462 4.419-9.89 9.881-9.89h10.686c2.726-.001 4.94 2.213 4.94 4.94z" fill="#aea7b9"/><path d="m148.422 184.003c0 2.004-1.629 3.632-3.641 3.632h-21.262c-.64-.878-1.199-1.821-1.674-2.818-.659-1.391-1.134-2.891-1.409-4.456h24.346c2.011 0 3.64 1.629 3.64 3.642z" fill="#c1b7d3"/><g fill="#ebd9ea"><path d="m141.159 187.637h-2.32c-2.008 0-3.636-1.628-3.636-3.636 0-2.008 1.628-3.636 3.636-3.636h2.32c2.008 0 3.636 1.628 3.636 3.636 0 2.008-1.628 3.636-3.636 3.636z"/><path d="m154.087 160.579h-11.036c-2.008 0-3.636-1.628-3.636-3.636 0-2.008 1.628-3.636 3.636-3.636h11.036c2.008 0 3.636 1.628 3.636 3.636 0 2.009-1.628 3.636-3.636 3.636z"/></g></g></g></g></g></svg>