<svg id="Capa_1" enable-background="new 0 0 512 512" height="512" viewBox="0 0 512 512" width="512" xmlns="http://www.w3.org/2000/svg" xmlns:xlink="http://www.w3.org/1999/xlink"><linearGradient id="SVGID_1_" gradientUnits="userSpaceOnUse" x1="256" x2="256" y1="512" y2="0"><stop offset="0" stop-color="#addcff"/><stop offset=".5028" stop-color="#eaf6ff"/><stop offset="1" stop-color="#eaf6ff"/></linearGradient><linearGradient id="SVGID_2_" gradientUnits="userSpaceOnUse" x1="256" x2="256" y1="407" y2="105"><stop offset="0" stop-color="#00c0ff"/><stop offset="1" stop-color="#5558ff"/></linearGradient><g><g><circle cx="256" cy="256" fill="url(#SVGID_1_)" r="256"/></g><g><g><path d="m398.118 318.176h-284.236c-4.91 0-8.882 3.973-8.882 8.882v71.059c0 4.91 3.973 8.882 8.882 8.882h284.235c4.91 0 8.882-3.973 8.882-8.882v-71.059c.001-4.909-3.972-8.882-8.881-8.882zm-71.059 53.295h-142.118c-4.91 0-8.882-3.973-8.882-8.882s3.973-8.882 8.882-8.882h142.118c4.91 0 8.882 3.973 8.882 8.882s-3.973 8.882-8.882 8.882zm-71.059-195.412h124.353c4.909 0 8.882-3.973 8.882-8.882v-53.294c0-4.91-3.973-8.882-8.882-8.882h-124.353c-4.91 0-8.882 3.973-8.882 8.882v53.294c0 4.909 3.972 8.882 8.882 8.882zm133.235 44.412c0-4.91-3.973-8.882-8.882-8.882h-26.647v-17.765h-17.765v17.765h-204.294c-4.909 0-8.882 3.973-8.882 8.882v79.941h266.471v-79.941zm-142.117 53.294c0 4.91-3.973 8.882-8.882 8.882h-71.059c-4.91 0-8.882-3.973-8.882-8.882v-35.529c0-4.91 3.973-8.882 8.882-8.882h71.059c4.91 0 8.882 3.973 8.882 8.882zm44.411 8.882h-17.765c-4.91 0-8.882-3.973-8.882-8.882 0-4.91 3.973-8.882 8.882-8.882h17.765c4.91 0 8.882 3.973 8.882 8.882.001 4.909-3.972 8.882-8.882 8.882zm0-35.529h-17.765c-4.91 0-8.882-3.973-8.882-8.882 0-4.91 3.973-8.882 8.882-8.882h17.765c4.91 0 8.882 3.973 8.882 8.882.001 4.909-3.972 8.882-8.882 8.882zm53.294 35.529h-17.765c-4.91 0-8.882-3.973-8.882-8.882 0-4.91 3.973-8.882 8.882-8.882h17.765c4.91 0 8.882 3.973 8.882 8.882.001 4.909-3.972 8.882-8.882 8.882zm0-35.529h-17.765c-4.91 0-8.882-3.973-8.882-8.882 0-4.91 3.973-8.882 8.882-8.882h17.765c4.91 0 8.882 3.973 8.882 8.882.001 4.909-3.972 8.882-8.882 8.882zm-168.764 17.764h53.294v-17.765h-53.294z" fill="url(#SVGID_2_)"/></g></g></g></svg>